<svg width="1200" height="1200" viewBox="0 0 1200 1200" fill="none" xmlns="http://www.w3.org/2000/svg">
  <rect width="1200" height="1200" fill="#050914"/>
  <defs>
    <linearGradient id="bluePurple" x1="90" y1="360" x2="680" y2="770" gradientUnits="userSpaceOnUse">
      <stop stop-color="#21D4FD"/>
      <stop offset="0.55" stop-color="#2E7BFF"/>
      <stop offset="1" stop-color="#A642FF"/>
    </linearGradient>
    <radialGradient id="glow" cx="0" cy="0" r="1" gradientUnits="userSpaceOnUse" gradientTransform="translate(875 440) rotate(90) scale(440)">
      <stop stop-color="#0BD5FF" stop-opacity="0.55"/>
      <stop offset="1" stop-color="#050914" stop-opacity="0"/>
    </radialGradient>
  </defs>
  <rect width="1200" height="1200" fill="url(#glow)"/>
  <path d="M700 137H1138M733 194H1065M790 252H1135M840 310H1103M884 367H1171" stroke="#0AA9FF" stroke-width="4" stroke-linecap="round" opacity="0.35"/>
  <circle cx="883" cy="367" r="10" fill="#1FCBFF"/>
  <circle cx="1065" cy="194" r="10" fill="#1FCBFF"/>
  <circle cx="1138" cy="137" r="10" fill="#1FCBFF"/>
  <path d="M746 716C791 644 806 560 795 472C779 343 849 270 958 285C1060 299 1120 389 1110 516C1101 639 1037 728 937 766C858 796 789 779 746 716Z" fill="#DFF7FF"/>
  <path d="M826 745C920 728 1011 659 1040 553C1069 447 1027 354 957 331C1067 360 1121 450 1110 516C1101 639 1037 728 937 766C890 784 849 782 826 745Z" fill="#44BFFF" opacity="0.55"/>
  <circle cx="969" cy="448" r="156" fill="#071A3A" stroke="#1FCBFF" stroke-width="10"/>
  <circle cx="969" cy="448" r="112" stroke="#2E7BFF" stroke-width="8"/>
  <circle cx="969" cy="448" r="73" fill="#0B2A60"/>
  <text x="969" y="474" text-anchor="middle" font-family="Arial, Helvetica, sans-serif" font-size="64" font-weight="800" fill="#E9FBFF">AI</text>
  <rect x="36" y="43" width="560" height="68" rx="4" fill="#07101F" stroke="#1FCBFF" stroke-width="2"/>
  <text x="62" y="91" font-family="Arial, Helvetica, sans-serif" font-size="39" font-weight="800" letter-spacing="14" fill="#F6FBFF">PACK MARKETING</text>
  <text x="477" y="91" font-family="Arial, Helvetica, sans-serif" font-size="39" font-weight="800" letter-spacing="8" fill="#1FCBFF">2026</text>
  <text x="38" y="296" font-family="Arial, Helvetica, sans-serif" font-size="138" font-weight="900" fill="#F8F8F8">MARKETING</text>
  <text x="39" y="471" font-family="Arial, Helvetica, sans-serif" font-size="142" font-weight="900" fill="url(#bluePurple)">IA</text>
  <text x="220" y="471" font-family="Arial, Helvetica, sans-serif" font-size="118" font-weight="900" fill="#F8F8F8">&amp;</text>
  <text x="38" y="603" font-family="Arial, Helvetica, sans-serif" font-size="88" font-weight="900" fill="url(#bluePurple)">AUTOMATISATION</text>
  <rect x="39" y="632" width="660" height="3" fill="url(#bluePurple)"/>
  <text x="40" y="690" font-family="Arial, Helvetica, sans-serif" font-size="32" fill="#F5F7FA">Transformer votre stratégie</text>
  <text x="40" y="735" font-family="Arial, Helvetica, sans-serif" font-size="32" fill="#F5F7FA">avec </text>
  <text x="124" y="735" font-family="Arial, Helvetica, sans-serif" font-size="32" font-weight="800" fill="#20D7FF">l'intelligence artificielle</text>
  <g font-family="Arial, Helvetica, sans-serif" font-size="25" fill="#F8F8F8">
    <circle cx="78" cy="807" r="38" stroke="#19D7FF" stroke-width="3"/>
    <text x="138" y="801" font-weight="800">STRATÉGIES IA</text>
    <text x="138" y="834" fill="#D7E5F0">GAGNANTES</text>
    <circle cx="78" cy="902" r="38" stroke="#9B4CFF" stroke-width="3"/>
    <text x="138" y="896" font-weight="800">AUTOMATISATION</text>
    <text x="138" y="929" fill="#D7E5F0">DES CAMPAGNES</text>
    <circle cx="78" cy="997" r="38" stroke="#19D7FF" stroke-width="3"/>
    <text x="138" y="991" font-weight="800">PLUS DE CONVERSIONS</text>
    <text x="138" y="1024" fill="#D7E5F0">MOINS DE COÛTS</text>
  </g>
  <rect x="560" y="804" width="380" height="150" rx="12" fill="#071225" stroke="#1688FF" stroke-width="2"/>
  <text x="590" y="860" font-family="Arial, Helvetica, sans-serif" font-size="38" font-weight="900" fill="#1FCBFF">+41%</text>
  <text x="590" y="902" font-family="Arial, Helvetica, sans-serif" font-size="22" fill="#D7E5F0">DE CONVERSIONS</text>
  <path d="M700 895L750 872L806 842L876 797" stroke="#1FCBFF" stroke-width="4"/>
  <rect x="955" y="805" width="205" height="150" rx="12" fill="#071225" stroke="#9747FF" stroke-width="2"/>
  <text x="994" y="856" font-family="Arial, Helvetica, sans-serif" font-size="24" fill="#F5F7FA">ROI MOYEN</text>
  <text x="1006" y="906" font-family="Arial, Helvetica, sans-serif" font-size="44" font-weight="900" fill="#1FCBFF">320%</text>
</svg>
